<svg xmlns="http://www.w3.org/2000/svg" viewBox="0 0 32 32">
  <defs>
    <linearGradient id="flame" x1="50%" y1="100%" x2="50%" y2="0%">
      <stop offset="0%" stop-color="#ea580c"/>
      <stop offset="40%" stop-color="#f97316"/>
      <stop offset="100%" stop-color="#fbbf24"/>
    </linearGradient>
    <linearGradient id="inner" x1="50%" y1="100%" x2="50%" y2="0%">
      <stop offset="0%" stop-color="#fcd34d"/>
      <stop offset="100%" stop-color="#fef3c7"/>
    </linearGradient>
  </defs>
  <!-- Main flame shape (Lucide-inspired) -->
  <path fill="url(#flame)" d="M16 2C16 2 12 6.5 12 11c0 2.2 1.8 4 4 4-3 0-5.5-1.5-5.5-4.5 0 0-4.5 5-4.5 11.5C6 27.5 10.5 30 16 30s10-2.5 10-8c0-4.5-2.5-9-5-11.5 0 3-2 5-4 5 0-3.5-1-9.5-1-13.5z"/>
  <!-- Inner glow -->
  <ellipse cx="16" cy="23" rx="4" ry="4" fill="url(#inner)" opacity="0.9"/>
</svg>
